<svg width="512" height="512" viewBox="0 0 512 512" fill="none" xmlns="http://www.w3.org/2000/svg">
  <defs>
    <linearGradient id="rdx-bg" x1="64" y1="48" x2="448" y2="464" gradientUnits="userSpaceOnUse">
      <stop stop-color="#3B82F6"/>
      <stop offset="0.52" stop-color="#22D3EE"/>
      <stop offset="1" stop-color="#8B5CF6"/>
    </linearGradient>
    <linearGradient id="rdx-body" x1="160" y1="168" x2="352" y2="320" gradientUnits="userSpaceOnUse">
      <stop stop-color="#E8F7FF"/>
      <stop offset="1" stop-color="#C7E6FF"/>
    </linearGradient>
  </defs>

  <circle cx="256" cy="256" r="212" stroke="url(#rdx-bg)" stroke-width="22"/>
  <circle cx="256" cy="256" r="184" stroke="url(#rdx-bg)" stroke-opacity="0.35" stroke-width="10"/>

  <rect x="154" y="168" width="204" height="154" rx="36" fill="url(#rdx-body)" stroke="#0F172A" stroke-width="12"/>
  <rect x="186" y="198" width="140" height="84" rx="24" fill="#0F172A"/>

  <circle cx="224" cy="240" r="14" fill="#22D3EE"/>
  <circle cx="288" cy="240" r="14" fill="#22D3EE"/>
  <path d="M230 273C236 281.5 246 286 256 286C266 286 276 281.5 282 273" stroke="#E2E8F0" stroke-width="8" stroke-linecap="round"/>

  <rect x="126" y="206" width="28" height="78" rx="14" fill="#C7E6FF" stroke="#0F172A" stroke-width="8"/>
  <rect x="358" y="206" width="28" height="78" rx="14" fill="#C7E6FF" stroke="#0F172A" stroke-width="8"/>

  <path d="M230 150L242 126H270L282 150" stroke="#3B82F6" stroke-width="10" stroke-linecap="round"/>
  <path d="M256 126V108" stroke="#3B82F6" stroke-width="10" stroke-linecap="round"/>

  <path d="M256 322C209 322 171 360 171 407H341C341 360 303 322 256 322Z" fill="#9ADAFE" stroke="#0F172A" stroke-width="10"/>

  <path d="M372 176C417 176 454 212 454 257C454 302 417 338 372 338C360 338 349 336 339 332L312 352L319 321C303 307 293 283 293 257C293 212 330 176 372 176Z" fill="#D9F7FF" stroke="#0F172A" stroke-width="10"/>
  <path d="M348 253L357 262L377 240" stroke="#22C55E" stroke-width="9" stroke-linecap="round" stroke-linejoin="round"/>
  <circle cx="392" cy="248" r="7" fill="#FBBF24"/>
  <circle cx="414" cy="262" r="7" fill="#F97316"/>
  <circle cx="390" cy="276" r="7" fill="#60A5FA"/>
</svg>
